  <svg clip-rule="evenodd" fill-rule="evenodd" stroke-linejoin="round" stroke-miterlimit="4" version="1.1" viewBox="0 0 81 80" xml:space="preserve" xmlns="http://www.w3.org/2000/svg" style="width:200px; height: 200px;"><g fill="none" stroke="#000" stroke-width="1.5px"><path d="m13.34 17.92c6.932-6.651 16.336-10.74 26.705-10.74 10.368 0 19.772 4.089 26.705 10.74 1.286 1.226 3.315 1.186 4.541-0.09s1.185-3.316-0.091-4.541c-8.077-7.767-19.059-12.539-31.155-12.539-12.097 0-23.078 4.772-31.166 12.529-1.276 1.235-1.316 3.265-0.091 4.551 1.226 1.286 3.266 1.326 4.542 0.09h0.01zm26.705 5.335c5.706 0 10.911 2.12 14.889 5.627 1.336 1.175 3.366 1.045 4.541-0.282 1.176-1.326 1.045-3.365-0.281-4.541-5.104-4.501-11.815-7.234-19.149-7.234-7.335 0-14.046 2.733-19.14 7.234-1.336 1.176-1.457 3.205-0.281 4.541 1.175 1.337 3.205 1.457 4.541 0.282 3.969-3.507 9.173-5.627 14.89-5.627h-0.01zm6.43 16.076c-0-3.528-2.903-6.431-6.43-6.431-3.528 0-6.431 2.903-6.431 6.431 0 3.527 2.903 6.43 6.431 6.43 3.527-0 6.43-2.903 6.43-6.43z"/><path d="m1.813 55.076c-1.787 2.428-1.268 5.839 1.16 7.626l17.271 12.728c3.192 2.347 7.04 3.615 11.009 3.615h43.711c2.414 0 4.365-1.95 4.365-4.365v-8.731c0-2.415-1.951-4.366-4.365-4.366h-5.021l-6.125-4.911c-3.097-2.483-6.944-3.82-10.914-3.82h-21.596c-2.415 0-4.366 1.951-4.366 4.366 0 2.414 1.951 4.365 4.366 4.365h10.914c1.2 0 2.183 0.982 2.183 2.183s-0.983 2.183-2.183 2.183h-16.453l-16.33-12.033c-2.428-1.787-5.839-1.269-7.626 1.16z"/></g></svg>
